# xmcd
#
# Track frame offsets:
#	150
#	16033
#	32999
#	49184
#	67849
#	88397
#	107981
#	128323
#	153501
#	165293
#	180576
#	203925
#	222281
#	244114
#	268104
#	282802
#	297969
#
# Disc length: 4191
#
# Revision: 5
# Processed by: cddbd v1.5.1PL0 Copyright (c) Steve Scherf et al.
# Submitted via: CDex 1.40Beta3
# Normalized: r2:TDELIM( - ),TSWAP;r4:DSETVAR1
#
DISCID=ee105d11
DTITLE=Various Artist - Hits 90 - 2
DYEAR=1900
DGENRE=Blues
TTITLE0=Khaled - El Arbi
TTITLE1=Crystal Waters - Gipsy Woman
TTITLE2=Double You - She's Beautiful
TTITLE3=Bee Gees - Paying The Price Of Love
TTITLE4=Semisonic - Closing Time
TTITLE5=Zizi Possi - Per Amore
TTITLE6=Billie Myers - Kiss The Rain
TTITLE7=Extreme - More Than Woeds
TTITLE8=Charles Aznavour - She
TTITLE9=Billy Ray Cyrus - Achy Breaky Heart
TTITLE10=Stereo Mc's - Connected
TTITLE11=Sabah Ali - Busindre Reel
TTITLE12=Nick French - Did You Ever Really Love Me
TTITLE13=K-Ci and Jojo - All My Life
TTITLE14=Aqua - Barbie Girl
TTITLE15=Bay Krazy - That's What Love Can Do
TTITLE16=Sash! Feat.: Rodriguez - Ecuador
EXTD=ID3G:   0
EXTT0=
EXTT1=
EXTT2=
EXTT3=
EXTT4=
EXTT5=
EXTT6=
EXTT7=
EXTT8=
EXTT9=
EXTT10=
EXTT11=
EXTT12=
EXTT13=
EXTT14=
EXTT15=
EXTT16=
PLAYORDER=
